<mxfile host="app.diagrams.net" modified="2020-12-02T07:14:44.694Z" agent="5.0 (Windows NT 10.0; Win64; x64) AppleWebKit/537.36 (KHTML, like Gecko) Chrome/86.0.4240.198 Safari/537.36" etag="xpp9Rh2PXDy6oIElbR53" version="13.7.4" type="github">
  <diagram id="C5RBs43oDa-KdzZeNtuy" name="Page-1">
    <mxGraphModel dx="780" dy="748" grid="1" gridSize="10" guides="1" tooltips="1" connect="1" arrows="1" fold="1" page="1" pageScale="1" pageWidth="827" pageHeight="1169" math="0" shadow="0">
      <root>
        <mxCell id="WIyWlLk6GJQsqaUBKTNV-0" />
        <mxCell id="WIyWlLk6GJQsqaUBKTNV-1" parent="WIyWlLk6GJQsqaUBKTNV-0" />
        <mxCell id="iMyB_8Vh8JDXjKSjlsZs-17" value="" style="group" vertex="1" connectable="0" parent="WIyWlLk6GJQsqaUBKTNV-1">
          <mxGeometry x="65" y="390" width="650" height="160" as="geometry" />
        </mxCell>
        <mxCell id="iMyB_8Vh8JDXjKSjlsZs-7" value="Inner Workflow" style="rounded=0;whiteSpace=wrap;html=1;verticalAlign=top;align=left;" vertex="1" parent="iMyB_8Vh8JDXjKSjlsZs-17">
          <mxGeometry width="650" height="160" as="geometry" />
        </mxCell>
        <mxCell id="iMyB_8Vh8JDXjKSjlsZs-9" value="C" style="rounded=1;whiteSpace=wrap;html=1;" vertex="1" parent="iMyB_8Vh8JDXjKSjlsZs-17">
          <mxGeometry x="265" y="40" width="120" height="60" as="geometry" />
        </mxCell>
        <mxCell id="iMyB_8Vh8JDXjKSjlsZs-10" value="Output" style="rounded=1;whiteSpace=wrap;html=1;" vertex="1" parent="iMyB_8Vh8JDXjKSjlsZs-17">
          <mxGeometry x="445" y="40" width="120" height="60" as="geometry" />
        </mxCell>
        <mxCell id="iMyB_8Vh8JDXjKSjlsZs-8" style="edgeStyle=orthogonalEdgeStyle;rounded=0;orthogonalLoop=1;jettySize=auto;html=1;" edge="1" parent="iMyB_8Vh8JDXjKSjlsZs-17" source="iMyB_8Vh8JDXjKSjlsZs-9" target="iMyB_8Vh8JDXjKSjlsZs-10">
          <mxGeometry relative="1" as="geometry">
            <mxPoint x="455" y="70" as="targetPoint" />
          </mxGeometry>
        </mxCell>
        <mxCell id="iMyB_8Vh8JDXjKSjlsZs-11" style="edgeStyle=orthogonalEdgeStyle;rounded=0;orthogonalLoop=1;jettySize=auto;html=1;entryX=0;entryY=0.5;entryDx=0;entryDy=0;" edge="1" parent="iMyB_8Vh8JDXjKSjlsZs-17" source="iMyB_8Vh8JDXjKSjlsZs-12" target="iMyB_8Vh8JDXjKSjlsZs-9">
          <mxGeometry relative="1" as="geometry" />
        </mxCell>
        <mxCell id="iMyB_8Vh8JDXjKSjlsZs-12" value="Input" style="rounded=1;whiteSpace=wrap;html=1;" vertex="1" parent="iMyB_8Vh8JDXjKSjlsZs-17">
          <mxGeometry x="85" y="40" width="120" height="60" as="geometry" />
        </mxCell>
        <mxCell id="iMyB_8Vh8JDXjKSjlsZs-18" value="" style="group" vertex="1" connectable="0" parent="WIyWlLk6GJQsqaUBKTNV-1">
          <mxGeometry x="65" y="30" width="650" height="160" as="geometry" />
        </mxCell>
        <mxCell id="iMyB_8Vh8JDXjKSjlsZs-6" value="Outer Workflow" style="rounded=0;whiteSpace=wrap;html=1;verticalAlign=top;align=left;" vertex="1" parent="iMyB_8Vh8JDXjKSjlsZs-18">
          <mxGeometry width="650" height="160" as="geometry" />
        </mxCell>
        <mxCell id="iMyB_8Vh8JDXjKSjlsZs-0" value="IF" style="rounded=1;whiteSpace=wrap;html=1;" vertex="1" parent="iMyB_8Vh8JDXjKSjlsZs-18">
          <mxGeometry x="265" y="40" width="120" height="60" as="geometry" />
        </mxCell>
        <mxCell id="iMyB_8Vh8JDXjKSjlsZs-2" value="B" style="rounded=1;whiteSpace=wrap;html=1;" vertex="1" parent="iMyB_8Vh8JDXjKSjlsZs-18">
          <mxGeometry x="445" y="40" width="120" height="60" as="geometry" />
        </mxCell>
        <mxCell id="iMyB_8Vh8JDXjKSjlsZs-1" style="edgeStyle=orthogonalEdgeStyle;rounded=0;orthogonalLoop=1;jettySize=auto;html=1;" edge="1" parent="iMyB_8Vh8JDXjKSjlsZs-18" source="iMyB_8Vh8JDXjKSjlsZs-0" target="iMyB_8Vh8JDXjKSjlsZs-2">
          <mxGeometry relative="1" as="geometry">
            <mxPoint x="455" y="70" as="targetPoint" />
          </mxGeometry>
        </mxCell>
        <mxCell id="iMyB_8Vh8JDXjKSjlsZs-5" style="edgeStyle=orthogonalEdgeStyle;rounded=0;orthogonalLoop=1;jettySize=auto;html=1;entryX=0;entryY=0.5;entryDx=0;entryDy=0;" edge="1" parent="iMyB_8Vh8JDXjKSjlsZs-18" source="iMyB_8Vh8JDXjKSjlsZs-4" target="iMyB_8Vh8JDXjKSjlsZs-0">
          <mxGeometry relative="1" as="geometry" />
        </mxCell>
        <mxCell id="iMyB_8Vh8JDXjKSjlsZs-4" value="A" style="rounded=1;whiteSpace=wrap;html=1;" vertex="1" parent="iMyB_8Vh8JDXjKSjlsZs-18">
          <mxGeometry x="85" y="40" width="120" height="60" as="geometry" />
        </mxCell>
        <mxCell id="iMyB_8Vh8JDXjKSjlsZs-15" value="" style="endArrow=classic;html=1;exitX=0.25;exitY=1;exitDx=0;exitDy=0;entryX=0.25;entryY=0;entryDx=0;entryDy=0;" edge="1" parent="WIyWlLk6GJQsqaUBKTNV-1" source="iMyB_8Vh8JDXjKSjlsZs-0" target="iMyB_8Vh8JDXjKSjlsZs-12">
          <mxGeometry width="50" height="50" relative="1" as="geometry">
            <mxPoint x="440" y="370" as="sourcePoint" />
            <mxPoint x="490" y="320" as="targetPoint" />
          </mxGeometry>
        </mxCell>
        <mxCell id="iMyB_8Vh8JDXjKSjlsZs-16" value="" style="endArrow=classic;html=1;exitX=0.75;exitY=1;exitDx=0;exitDy=0;entryX=0.75;entryY=0;entryDx=0;entryDy=0;" edge="1" parent="WIyWlLk6GJQsqaUBKTNV-1" source="iMyB_8Vh8JDXjKSjlsZs-0" target="iMyB_8Vh8JDXjKSjlsZs-10">
          <mxGeometry width="50" height="50" relative="1" as="geometry">
            <mxPoint x="370" y="140" as="sourcePoint" />
            <mxPoint x="190" y="290" as="targetPoint" />
          </mxGeometry>
        </mxCell>
      </root>
    </mxGraphModel>
  </diagram>
</mxfile>
